<svg id="SvgjsSvg1001" width="288" height="288" xmlns="http://www.w3.org/2000/svg" version="1.1" xmlns:xlink="http://www.w3.org/1999/xlink" xmlns:svgjs="http://svgjs.com/svgjs"><defs id="SvgjsDefs1002"></defs><g id="SvgjsG1008" transform="matrix(1,0,0,1,0,0)"><svg xmlns="http://www.w3.org/2000/svg" enable-background="new 0 0 64 64" viewBox="0 0 64 64" width="288" height="288"><path d="M40.06,62.02H23.94c-1.42,0-2.57-1.15-2.57-2.57V30.47c0-3.89,2.16-7.49,5.55-9.34l0.72-13.81
				c0.03-0.53,0.46-0.94,1.02-0.92c0.53,0.03,0.94,0.48,0.92,1.02l-0.75,14.37c-0.02,0.36-0.23,0.67-0.55,0.82
				c-3.02,1.44-4.97,4.52-4.97,7.86v28.98c0,0.35,0.28,0.63,0.63,0.63h16.13c0.35,0,0.63-0.28,0.63-0.63V30.47
				c0-2.32-0.9-4.5-2.55-6.15c-0.71-0.71-1.52-1.28-2.43-1.72c-0.32-0.15-0.53-0.47-0.55-0.82L34.41,7.42
				c-0.03-0.53,0.38-0.99,0.92-1.02c0.51-0.03,0.99,0.38,1.02,0.92l0.73,13.81c0.9,0.49,1.71,1.1,2.44,1.83
				c2.01,2.01,3.12,4.68,3.12,7.52v28.98C42.63,60.87,41.48,62.02,40.06,62.02z" fill="#ffffff" class="color000 svgShape"></path><path d="M36.14 8.34h-8.28c-.27 0-.53-.11-.72-.32-.18-.2-.27-.47-.25-.74l.4-4.42c.04-.5.46-.88.97-.88h7.48c.5 0 .92.38.97.88l.4 4.42c.02.27-.07.54-.25.74C36.67 8.23 36.41 8.34 36.14 8.34zM28.92 6.4h6.16l-.22-2.48h-5.71L28.92 6.4zM41.66 56.44H29.55c-.54 0-.97-.43-.97-.97V34.46c0-.54.43-.97.97-.97h12.11c.54 0 .97.43.97.97 0 .54-.43.97-.97.97H30.52V54.5h11.14c.54 0 .97.43.97.97S42.2 56.44 41.66 56.44zM9.39 51.53C4.72 51.53 0 48.33 0 41.17c0-2.46.59-5.11 1.67-7.47.16-.35.5-.57.88-.57h13.68c.38 0 .72.22.88.57 1.08 2.35 1.67 5.01 1.67 7.47C18.78 48.33 14.07 51.53 9.39 51.53zM3.19 35.08c-.81 1.96-1.25 4.1-1.25 6.09 0 6.22 4.02 8.42 7.45 8.42s7.45-2.21 7.45-8.42c0-1.99-.44-4.13-1.25-6.09H3.19zM12.77 62.02H6.02c-.54 0-.97-.43-.97-.97 0-.54.43-.97.97-.97h6.75c.54 0 .97.43.97.97C13.74 61.58 13.3 62.02 12.77 62.02z" fill="#ffffff" class="color000 svgShape"></path><path d="M12.57 41.87c-2.05 0-3.69-.45-5.21-.87-1.99-.55-3.7-1.02-6.07-.43-.52.13-1.05-.19-1.18-.71-.13-.52.19-1.05.71-1.18 2.87-.72 5-.13 7.06.44 2.52.69 5.13 1.41 9.59-.08.51-.17 1.06.1 1.23.61.17.51-.1 1.06-.61 1.23C15.91 41.61 14.12 41.87 12.57 41.87zM9.39 62.02c-.54 0-.97-.43-.97-.97V50.56c0-.54.43-.97.97-.97.54 0 .97.43.97.97v10.49C10.36 61.58 9.93 62.02 9.39 62.02zM54.61 51.53c-4.68 0-9.39-3.2-9.39-10.36 0-2.46.59-5.11 1.67-7.47.16-.35.5-.57.88-.57h13.68c.38 0 .72.22.88.57 1.08 2.35 1.67 5.01 1.67 7.47C64 48.33 59.28 51.53 54.61 51.53zM48.4 35.08c-.81 1.96-1.25 4.1-1.25 6.09 0 6.22 4.02 8.42 7.45 8.42s7.45-2.21 7.45-8.42c0-1.99-.44-4.13-1.25-6.09H48.4zM57.98 62.02h-6.75c-.54 0-.97-.43-.97-.97 0-.54.43-.97.97-.97h6.75c.54 0 .97.43.97.97C58.95 61.58 58.52 62.02 57.98 62.02z" fill="#ffffff" class="color000 svgShape"></path><path d="M57.79 41.87c-2.05 0-3.69-.45-5.21-.87-1.99-.55-3.7-1.02-6.07-.43-.52.13-1.05-.19-1.18-.71-.13-.52.19-1.05.71-1.18 2.87-.72 5-.13 7.06.44 2.52.69 5.13 1.41 9.59-.08.51-.17 1.06.1 1.23.61.17.51-.1 1.06-.61 1.23C61.13 41.61 59.34 41.87 57.79 41.87zM54.61 62.02c-.54 0-.97-.43-.97-.97V50.56c0-.54.43-.97.97-.97.54 0 .97.43.97.97v10.49C55.58 61.58 55.14 62.02 54.61 62.02z" fill="#ffffff" class="color000 svgShape"></path></svg></g></svg>